<?xml version="1.0" encoding="UTF-8"?>
<svg width="1161px" height="1780px" viewBox="0 0 1161 1780" version="1.1" xmlns="http://www.w3.org/2000/svg" xmlns:xlink="http://www.w3.org/1999/xlink">
    <!-- Generator: Sketch 52.6 (67491) - http://www.bohemiancoding.com/sketch -->
    <title>Group 13</title>
    <desc>Created with Sketch.</desc>
    <defs>
        <path d="M289,0 L703.398649,0 C956.124896,8.82696123e-14 1161,237.289083 1161,530 C1161,822.710917 956.124896,1060 703.398649,1060 L289,1060 L289,1780 L0,1780 L0,0 L289,0 Z M675.112022,228 C814.225911,228 927,362.986148 927,529.5 C927,696.013852 814.225911,831 675.112022,831 L289,831 L289,228 L675.112022,228 Z" id="path-1"></path>
    </defs>
    <g id="Page-1" stroke="none" stroke-width="1" fill="none" fill-rule="evenodd">
        <g id="Group-13">
            <g id="help-please-background-1-copy">
                <mask id="mask-2" fill="white">
                    <use xlink:href="#path-1"></use>
                </mask>
                <use id="Mask" fill="#FFFFFF" xlink:href="#path-1"></use>
                <g mask="url(#mask-2)">
                    <g transform="translate(746.500000, 730.000000) rotate(-180.000000) translate(-746.500000, -730.000000) translate(-756.000000, -966.000000)">
                        <path d="M891.064184,1848.91941 L891.111597,1849.00885 C891.157352,1849.12142 891.249042,1849.34527 891.386513,1849.67828 C891.615854,1850.23382 891.890664,1850.89427 892.210787,1851.65748 C893.125708,1853.83877 894.220012,1856.40563 895.492452,1859.34103 C899.12854,1867.72914 903.46222,1877.38724 908.483514,1888.17918 C922.830955,1919.0152 939.809206,1952.7531 959.338388,1988.30368 C1015.13462,2089.87418 1080.17675,2185.62866 1153.82279,2266.85322 C1248.49125,2371.2635 1350.47994,2443.73097 1459.14101,2475.5554 C1587.53673,2513.15969 1721.34808,2492.73695 1859.97369,2405.56382 C2002.80347,2315.74695 2173.5785,2152.24253 2345.47235,1944.08507 C2512.02165,1742.39968 2669.90214,1510.32497 2788.88884,1291.63257 C2914.76304,1060.28126 2990.74094,856.240124 3002.02637,709.099878 C3014.53112,546.062036 2948.04717,457.449921 2797.32306,457.449921 C2703.7905,457.449921 2583.19748,445.695285 2423.12399,422.452557 C2357.03867,412.856945 2284.83571,401.42629 2195.52648,386.584001 C2160.50978,380.76458 2124.29235,374.664733 2075.29313,366.353874 C2086.25074,368.212417 1980.69078,350.28784 1952.17651,345.467967 C1865.71313,330.852738 1799.46846,319.891783 1734.91299,309.623857 C1548.45343,279.966366 1396.84357,259.654926 1259.44154,247.157727 C1096.65783,232.351976 959.252375,229.277725 844.728848,239.393428 C717.471193,250.633919 619.412757,278.175133 551.568187,323.997783 C478.252566,373.515615 440.5,444.270621 440.5,538.470611 C440.5,572.502954 441.790561,607.089215 444.335716,642.20088 C454.034252,775.996906 481.796025,916.200484 525.128002,1060.83587 C562.259777,1184.77594 609.974961,1309.19888 665.779483,1432.12944 C715.062047,1540.69293 767.864993,1642.10708 820.667622,1733.58449 C839.148203,1765.601 856.30851,1794.08823 871.70845,1818.69779 C877.098122,1827.31065 881.882673,1834.82345 886.007093,1841.19265 C887.450466,1843.4216 888.708177,1845.34832 889.77335,1846.96736 C890.14607,1847.53389 890.468076,1848.02146 890.73851,1848.42939 C890.900646,1848.67396 891.009491,1848.83753 891.064184,1848.91941 Z" id="Oval" stroke="#00DBF6" fill="#00DBF6"></path>
                        <path d="M1544.40061,3391.5 C2292.80137,3391.5 2899.5,2785.00239 2899.5,2036.84975 C2899.5,1855.4198 2769.19165,1645.15923 2551.93747,1465.12332 C2331.37949,1282.34958 2046.5196,1151.27732 1766.74406,1111.40686 C1615.4387,1089.84453 1468.31426,1095.05267 1330.91433,1128.7776 C1183.40175,1164.98469 1048.71108,1233.59353 930.684011,1335.54563 C804.052968,1444.92986 697.642501,1591.74039 614.291875,1776.71756 C525.222893,1974.38529 463.046851,2214.33914 430.0637,2497.35923 C394.921793,2798.90307 393.787293,3007.61004 424.291429,3131.35928 C452.387922,3245.3412 507.085513,3286.80878 586.977856,3262.93528 C658.837589,3241.46209 750.516947,3167.54657 862.784789,3044.97702 C957.349094,2941.73549 1063.69506,2807.58147 1195.14209,2629.09082 C1226.90089,2585.96586 1260.14491,2540.24071 1297.32815,2488.62383 C1317.75231,2460.27151 1338.9719,2430.69128 1364.40759,2395.13885 C1379.10986,2374.58894 1429.56076,2303.99085 1430.37568,2302.85097 C1485.96687,2225.09179 1521.73193,2175.35155 1557.20332,2126.65922 C1650.23544,1998.95206 1719.78117,1908.56939 1778.01087,1841.35324 C1845.86173,1763.03113 1896.50989,1718.73923 1931.55153,1709.30377 C1970.03075,1698.94269 1989.5894,1730.64821 1989.5894,1807.96092 C1989.5894,1876.4529 1979.61612,1947.62128 1960.26239,2021.76865 C1933.73896,2123.38428 1889.93323,2229.70554 1829.54524,2343.93489 C1779.59355,2438.42305 1720.50544,2534.73173 1643.7552,2649.82415 C1615.07289,2692.83528 1597.12544,2719.15864 1539.70756,2802.85636 C1493.16328,2870.70369 1469.31505,2905.86598 1444.40036,2943.80833 C1377.44015,3045.78143 1336.55028,3118.74909 1314.94526,3179.14518 C1289.92899,3249.07731 1292.29378,3300.14452 1325.0286,3334.97553 C1360.37103,3372.58114 1431.66404,3391.5 1544.40061,3391.5 Z" id="Oval" stroke="#312AC3" fill="#312AC3" transform="translate(1651.000000, 2245.000000) rotate(180.000000) translate(-1651.000000, -2245.000000) "></path>
                        <path d="M823.368967,1688.58261 L823.377696,1688.60716 C823.549105,1689.13239 823.89025,1690.16541 824.399099,1691.68768 C825.247414,1694.22548 826.25937,1697.21545 827.432933,1700.63901 C830.78626,1710.42147 834.761636,1721.71579 839.342804,1734.37359 C852.432311,1770.53998 867.749911,1810.37984 885.165498,1852.70605 C934.923392,1973.63583 991.512393,2090.26807 1053.88979,2193.1045 C1134.07367,2325.29702 1217.96084,2424.71002 1304.49084,2481.84577 C1406.68373,2549.32374 1509.41416,2555.61919 1611.73147,2491.26889 C1716.40952,2425.43386 1837.89614,2283.02628 1958.92507,2089.22372 C2073.6917,1905.44892 2181.63983,1685.26518 2261.43866,1472.61547 C2344.42364,1251.47525 2392.05148,1052.12086 2393.85166,907.644018 C2395.84039,748.03464 2342.52173,660.631119 2231.36466,660.616287 C2150.06646,660.605439 2042.47771,640.361151 1901.65877,600.955206 C1842.44102,584.384058 1777.61045,564.533006 1701.2347,539.834196 C1644.65825,521.538192 1608.48911,509.499445 1490.03834,469.776127 C1481.05284,466.762775 1473.69679,464.296841 1466.63056,461.929559 C1306.9235,408.425588 1214.73603,378.754004 1120.47568,351.616709 C999.695044,316.8443 900.915673,294.519237 818.575489,284.660336 C725.497455,273.515752 654.419512,278.575516 605.260895,301.645951 C551.92093,326.678719 524.541605,372.947846 524.550936,442.879356 C524.565628,552.995827 540.913792,685.355576 571.263044,835.727437 C596.945098,962.974667 631.961978,1099.78318 673.979657,1241.92599 C706.660623,1352.48337 741.674637,1459.92361 776.68761,1560.02058 C788.942077,1595.05431 800.321037,1626.66757 810.532732,1654.33212 C814.106735,1664.01446 817.279514,1672.51155 820.014599,1679.75735 C820.971827,1682.29324 821.805955,1684.49155 822.512425,1686.34402 C822.759662,1686.99231 822.973275,1687.55105 823.152695,1688.0192 C823.251499,1688.2769 823.251499,1688.2769 823.314685,1688.44142 C823.339547,1688.50612 823.339547,1688.50612 823.355397,1688.54734 C823.361625,1688.56353 823.361625,1688.56353 823.365588,1688.57383 C823.367143,1688.57787 823.367143,1688.57787 823.368131,1688.58043 C823.368518,1688.58144 823.368518,1688.58144 823.368762,1688.58207 C823.368858,1688.58232 823.368858,1688.58232 823.368917,1688.58247 L823.368967,1688.58261 Z" id="Oval-Copy-17" stroke="#F79302" fill="#F79302" transform="translate(1459.227889, 1407.547051) rotate(-56.000000) translate(-1459.227889, -1407.547051) "></path>
                    </g>
                </g>
            </g>
        </g>
    </g>
</svg>