<?xml version="1.0" standalone="no"?>
<!DOCTYPE svg PUBLIC "-//W3C//DTD SVG 20010904//EN"
 "http://www.w3.org/TR/2001/REC-SVG-20010904/DTD/svg10.dtd">
<svg version="1.0" xmlns="http://www.w3.org/2000/svg"
 width="1780.000000pt" height="1780.000000pt" viewBox="0 0 1780.000000 1780.000000"
 preserveAspectRatio="xMidYMid meet">
<metadata>
Created by potrace 1.14, written by Peter Selinger 2001-2017
</metadata>
<g transform="translate(0.000000,1780.000000) scale(0.100000,-0.100000)"
fill="#000000" stroke="none">
<path d="M3100 8900 l0 -8900 1445 0 1445 0 0 3600 0 3600 2163 1 c1189 0
2191 2 2227 4 74 5 262 24 300 31 14 2 43 6 65 9 22 3 87 15 145 26 548 107
1058 320 1539 642 728 487 1342 1222 1739 2082 126 272 253 619 327 890 9 33
20 74 25 90 17 55 80 346 96 440 2 17 9 55 14 85 15 86 38 258 45 335 3 39 8
79 10 90 26 137 27 1016 0 1154 -2 11 -6 48 -10 83 -8 87 -26 233 -30 248 -1
3 -5 28 -9 55 -15 102 -69 364 -101 495 -93 377 -210 708 -374 1060 -498 1068
-1306 1913 -2276 2380 -122 59 -286 126 -415 172 -272 96 -611 175 -875 203
-33 3 -73 9 -90 12 -16 4 -1689 8 -3717 10 l-3688 3 0 -8900z m6980 6608 c14
-4 48 -9 75 -12 189 -22 450 -103 655 -205 157 -79 240 -130 378 -234 577
-434 981 -1125 1126 -1927 55 -305 67 -736 30 -1050 -34 -289 -138 -690 -235
-907 -11 -23 -19 -44 -19 -47 0 -12 -99 -210 -154 -306 -202 -358 -483 -679
-781 -892 -284 -202 -550 -322 -876 -393 -198 -43 -217 -43 -2301 -44 l-1988
-1 0 3015 0 3016 2033 -4 c1117 -1 2043 -6 2057 -9z"/>
</g>
</svg>
